<svg width="466" height="466" viewBox="0 0 466 466" fill="none" xmlns="http://www.w3.org/2000/svg">
<path d="M233 344.374C311.11 344.374 374.431 338.449 374.431 331.14C374.431 323.831 311.11 317.905 233 317.905C154.89 317.905 91.5691 323.831 91.5691 331.14C91.5691 338.449 154.89 344.374 233 344.374Z" fill="#E5E5E5"/>
<path d="M289.153 314.969C293.3 314.969 296.656 311.614 296.656 307.467V296.003C296.656 291.856 293.3 288.501 289.153 288.501C285.006 288.501 281.65 291.856 281.65 296.003V307.467C281.65 311.614 285.006 314.969 289.153 314.969Z" stroke="#4D4D61" stroke-width="3" stroke-miterlimit="10" stroke-linecap="round" stroke-linejoin="round"/>
<path d="M289.153 314.969C293.3 314.969 296.656 311.614 296.656 307.467V296.003C296.656 291.856 293.3 288.501 289.153 288.501C285.006 288.501 281.65 291.856 281.65 296.003V307.467C281.65 311.614 285.006 314.969 289.153 314.969Z" fill="#4D4D61"/>
<path d="M283.747 310.17V298.706C283.747 294.559 287.103 291.203 291.25 291.203C293.067 291.203 294.698 291.856 296.003 292.881C294.838 290.271 292.229 288.454 289.153 288.454C285.006 288.454 281.65 291.809 281.65 295.957V307.42C281.65 309.797 282.722 311.894 284.446 313.245C283.98 312.36 283.747 311.288 283.747 310.17Z" fill="#56566D"/>
<path d="M289.06 291.53C291.35 291.53 293.207 290.862 293.207 290.038C293.207 289.215 291.35 288.547 289.06 288.547C286.769 288.547 284.912 289.215 284.912 290.038C284.912 290.862 286.769 291.53 289.06 291.53Z" fill="#4D4D61"/>
<path d="M289.153 290.038C290.691 290.038 291.949 288.78 291.949 287.242V274.334C291.949 273.029 290.877 271.958 289.572 271.958H288.78C287.475 271.958 286.404 273.029 286.404 274.334V287.242C286.357 288.78 287.615 290.038 289.153 290.038Z" fill="#4D4D61"/>
<path d="M289.153 290.038C290.691 290.038 291.949 288.78 291.949 287.242V274.288C291.949 272.983 290.924 271.958 289.619 271.958H288.734C287.429 271.958 286.404 272.983 286.404 274.288V287.242C286.357 288.78 287.615 290.038 289.153 290.038Z" stroke="#4D4D61" stroke-width="3" stroke-miterlimit="10" stroke-linecap="round" stroke-linejoin="round"/>
<path d="M230.437 175.868H222.469C220.977 175.868 219.766 174.657 219.766 173.166C219.766 171.674 220.977 170.463 222.469 170.463H225.824C228.48 170.463 230.623 168.319 230.623 165.663C230.623 163.007 228.48 160.863 225.824 160.863H215.292C214.873 160.863 214.5 160.49 214.5 160.071C214.5 159.652 214.873 159.279 215.292 159.279H216.457C216.923 159.279 217.296 158.906 217.296 158.44C217.296 157.974 216.923 157.601 216.457 157.601H208.209C207.65 157.601 207.184 158.067 207.184 158.626C207.184 159.186 207.65 159.652 208.209 159.652H211.424C212.356 159.652 213.149 160.444 213.149 161.376C213.149 162.308 212.356 163.1 211.424 163.1H209.887C207.696 163.1 205.879 164.871 205.879 167.108C205.879 169.344 207.65 171.115 209.887 171.115H213.149C213.894 171.115 214.5 171.721 214.5 172.467C214.5 173.212 213.894 173.818 213.149 173.818H211.89C210.446 173.818 209.281 174.983 209.281 176.428C209.281 177.872 210.446 179.037 211.89 179.037H228.899C229.831 179.037 230.623 179.829 230.577 180.761L230.53 182.066H233.932V179.363C233.839 177.406 232.301 175.868 230.437 175.868ZM219.393 165.756C219.393 165.337 219.719 164.964 220.185 164.964H224.799C225.218 164.964 225.591 165.29 225.591 165.756C225.591 166.176 225.265 166.548 224.799 166.548H220.185C219.719 166.502 219.393 166.176 219.393 165.756Z" fill="#E5E5E5"/>
<path d="M205.739 157.415H204.341C203.828 157.415 203.409 156.995 203.409 156.483C203.409 155.97 203.828 155.551 204.341 155.551H205.739C206.252 155.551 206.671 155.97 206.671 156.483C206.671 156.995 206.252 157.415 205.739 157.415Z" fill="#E5E5E5"/>
<path d="M317.905 262.311L315.948 259.096C315.528 258.397 315.761 257.465 316.46 256.999C317.159 256.58 318.091 256.813 318.557 257.512L320.515 260.727C320.934 261.426 320.701 262.358 320.002 262.824C319.256 263.29 318.324 263.057 317.905 262.311Z" fill="#4D4D61"/>
<path d="M321.633 261.1L318.464 259.096C317.765 258.63 317.532 257.698 317.998 256.999C318.464 256.3 319.396 256.067 320.095 256.533L323.264 258.537C323.963 259.003 324.196 259.935 323.73 260.634C323.311 261.333 322.379 261.519 321.633 261.1Z" fill="#4D4D61"/>
<path d="M324.196 258.583L320.468 258.071C319.629 257.978 319.07 257.185 319.163 256.347C319.256 255.508 320.049 254.949 320.887 255.042L324.615 255.554C325.454 255.648 326.013 256.44 325.92 257.279C325.78 258.117 325.035 258.677 324.196 258.583Z" fill="#4D4D61"/>
<path d="M325.501 255.508L321.773 256.02C320.934 256.16 320.188 255.554 320.049 254.716C319.909 253.877 320.515 253.131 321.353 252.991L325.081 252.479C325.92 252.339 326.666 252.945 326.806 253.784C326.899 254.622 326.34 255.368 325.501 255.508Z" fill="#4D4D61"/>
<path d="M326.06 252.339L322.472 253.457C321.68 253.69 320.841 253.271 320.561 252.432C320.328 251.64 320.748 250.801 321.587 250.522L325.175 249.403C325.967 249.17 326.806 249.59 327.085 250.428C327.272 251.267 326.852 252.106 326.06 252.339Z" fill="#4D4D61"/>
<path d="M326.153 249.077L322.658 250.428C321.866 250.708 320.981 250.335 320.701 249.543C320.422 248.751 320.794 247.865 321.587 247.586L325.082 246.234C325.874 245.955 326.759 246.328 327.039 247.12C327.318 247.912 326.946 248.751 326.153 249.077Z" fill="#4D4D61"/>
<path d="M326.06 245.815L322.705 247.539C321.959 247.912 321.027 247.632 320.655 246.887C320.282 246.141 320.561 245.209 321.307 244.836L324.662 243.112C325.408 242.739 326.34 243.019 326.713 243.765C327.085 244.51 326.806 245.442 326.06 245.815Z" fill="#4D4D61"/>
<path d="M325.781 243.625L322.425 245.349C321.68 245.722 320.748 245.442 320.375 244.697C320.002 243.951 320.282 243.019 321.027 242.646L324.383 240.922C325.128 240.549 326.06 240.829 326.433 241.574C326.806 242.32 326.526 243.252 325.781 243.625Z" fill="#4D4D61"/>
<path d="M236.309 184.909C232.907 184.909 230.157 187.658 230.157 191.06C230.157 194.462 232.907 197.211 236.309 197.211C239.71 197.211 242.46 194.462 242.46 191.06C242.46 187.658 239.71 184.909 236.309 184.909ZM236.309 194.835C234.258 194.835 232.581 193.157 232.581 191.107C232.581 189.056 234.258 187.379 236.309 187.379C238.359 187.379 240.037 189.056 240.037 191.107C240.037 193.157 238.359 194.835 236.309 194.835Z" stroke="#4D4D61" stroke-width="3" stroke-miterlimit="10" stroke-linecap="round" stroke-linejoin="round"/>
<path d="M241.388 187.845H240.735H236.075C234.677 187.845 233.745 189.336 234.444 190.594C235.423 192.458 237.427 193.763 239.71 193.763H240.316V200.753H246.7V193.11C246.654 190.221 244.277 187.845 241.388 187.845Z" fill="#F7E3CB"/>
<path d="M241.388 187.845H240.735H238.732C241.667 187.845 244.044 190.221 244.044 193.157V200.799H246.7V193.157C246.654 190.221 244.277 187.845 241.388 187.845Z" fill="#EDD6BC"/>
<path d="M241.388 187.845H240.735H235.376C234.398 187.845 233.745 188.777 234.025 189.662C234.817 192.039 237.054 193.763 239.664 193.763H240.269V200.753H246.654V193.11C246.654 190.221 244.277 187.845 241.388 187.845Z" stroke="#4D4D61" stroke-width="3" stroke-miterlimit="10" stroke-linecap="round" stroke-linejoin="round"/>
<path d="M223.447 199.867H232.394C234.351 199.867 235.982 198.283 235.982 196.279V182.346H219.859V196.279C219.859 198.236 221.443 199.867 223.447 199.867Z" fill="#FFD680"/>
<path d="M219.859 194.835H221.956C224.845 194.835 227.128 192.505 227.128 189.662V187.658L228.2 188.497" stroke="#4D4D61" stroke-width="2" stroke-miterlimit="10" stroke-linecap="round" stroke-linejoin="round"/>
<path d="M231.276 182.299V196.233C231.276 198.19 229.691 199.821 227.688 199.821H232.348C234.305 199.821 235.936 198.236 235.936 196.233V182.299H231.276Z" fill="#EABD6C"/>
<path d="M223.447 199.867H232.394C234.351 199.867 235.982 198.283 235.982 196.279V182.346H219.859V196.279C219.859 198.236 221.443 199.867 223.447 199.867Z" stroke="#4D4D61" stroke-width="3" stroke-miterlimit="10" stroke-linecap="round" stroke-linejoin="round"/>
<path d="M263.15 201.265L265.48 206.065L268.929 203.689L263.15 201.265Z" fill="#CA4361"/>
<path d="M263.15 201.265L265.48 206.065L268.929 203.689L263.15 201.265Z" stroke="#4D4D61" stroke-width="2" stroke-miterlimit="10" stroke-linecap="round" stroke-linejoin="round"/>
<path d="M271.069 310.831L277.442 306.873L250.864 264.079L244.491 268.038L271.069 310.831Z" fill="#F7E3CB"/>
<path d="M271.069 310.831L277.442 306.873L250.864 264.079L244.491 268.038L271.069 310.831Z" stroke="#4D4D61" stroke-width="3" stroke-miterlimit="10" stroke-linecap="round" stroke-linejoin="round"/>
<path d="M175.03 298.24L224.379 258.537L229.132 264.269L179.783 304.018L175.03 298.24Z" fill="#F7E3CB"/>
<path d="M180.435 293.906L184.956 299.871L189.429 296.376L184.909 290.271L180.435 293.906Z" fill="#EDD6BC"/>
<path d="M175.03 298.24L224.379 258.537L229.132 264.269L179.783 304.018L175.03 298.24Z" stroke="#4D4D61" stroke-width="3" stroke-miterlimit="10" stroke-linecap="round" stroke-linejoin="round"/>
<path d="M281.231 201.265L277.689 197.165C276.198 195.44 273.589 195.254 271.864 196.699C270.094 198.19 269.907 200.846 271.398 202.57L274.94 206.671C280.532 213.148 279.833 222.981 273.309 228.573C266.832 234.165 256.999 233.466 251.407 226.942C248.984 224.099 247.632 220.511 247.632 216.783V199.914H239.338V216.83C239.338 222.562 241.388 228.06 245.116 232.394C253.737 242.367 268.789 243.485 278.761 234.864C288.734 226.336 289.805 211.238 281.231 201.265Z" stroke="#4D4D61" stroke-width="3" stroke-miterlimit="10" stroke-linecap="round" stroke-linejoin="round"/>
<path d="M267.857 203.689C267.857 203.689 273.216 209.048 276.664 213.894C280.066 218.694 282.582 225.078 282.582 226.336C284.54 227.594 285.052 228.293 285.378 227.967C285.705 227.641 285.704 225.777 285.704 224.146C285.704 222.468 270.559 201.871 267.857 203.689Z" fill="#CA4361"/>
<path d="M267.857 203.689C267.857 203.689 273.216 209.048 276.664 213.894C280.066 218.694 282.582 225.078 282.582 226.336C284.54 227.594 285.052 228.293 285.378 227.967C285.705 227.641 285.704 225.777 285.704 224.146C285.704 222.468 270.559 201.871 267.857 203.689Z" stroke="#4D4D61" stroke-width="2" stroke-miterlimit="10" stroke-linecap="round" stroke-linejoin="round"/>
<path d="M284.167 311.894L247.772 322.938C247.12 323.124 246.421 322.752 246.188 322.099L246.141 322.006C245.955 321.354 246.328 320.655 246.98 320.422L283.375 309.377C284.027 309.191 284.726 309.564 284.959 310.216L285.006 310.309C285.192 311.008 284.819 311.707 284.167 311.894Z" fill="#595D5C"/>
<path d="M284.167 311.894L247.772 322.938C247.12 323.124 246.421 322.752 246.188 322.099L246.141 322.006C245.955 321.354 246.328 320.655 246.98 320.422L283.375 309.377C284.027 309.191 284.726 309.564 284.959 310.216L285.006 310.309C285.192 311.008 284.819 311.707 284.167 311.894Z" stroke="#4D4D61" stroke-width="3" stroke-miterlimit="10" stroke-linecap="round" stroke-linejoin="round"/>
<path d="M278.342 302.527L278.202 302.574C277.41 303.972 275.732 305.23 273.589 305.882C272.004 306.348 270.42 306.442 269.115 306.115C267.95 305.836 266.738 305.789 265.573 306.115L251.221 310.123C249.496 310.589 248.145 311.894 247.446 313.711L245.908 317.719C245.396 319.07 246.561 320.608 247.819 320.235L283.048 309.517L281.557 304.671C281.091 303.133 279.647 302.201 278.342 302.527Z" fill="#9B8462"/>
<path d="M247.446 313.758L247.213 314.41C248.425 315.342 250.056 315.715 251.687 315.249L273.682 308.539C275.779 307.886 277.084 306.022 277.13 303.925C276.245 304.764 275.033 305.463 273.635 305.883C272.051 306.349 270.466 306.442 269.162 306.116C267.997 305.836 266.785 305.789 265.62 306.116L251.267 310.123C249.497 310.589 248.145 311.894 247.446 313.758Z" fill="#E1C885"/>
<path d="M278.342 302.527L278.202 302.574C277.41 303.972 275.732 305.23 273.589 305.882C272.004 306.348 270.42 306.442 269.115 306.115C267.95 305.836 266.738 305.789 265.573 306.115L251.221 310.123C249.496 310.589 248.145 311.894 247.446 313.711L245.908 317.719C245.396 319.07 246.561 320.608 247.819 320.235L283.048 309.517L281.557 304.671C281.091 303.133 279.647 302.201 278.342 302.527Z" stroke="#4D4D61" stroke-width="3" stroke-miterlimit="10" stroke-linecap="round" stroke-linejoin="round"/>
<path d="M265.573 310.309L268.043 305.929L266.179 305.976L265.573 310.309Z" stroke="#4D4D61" stroke-width="3" stroke-miterlimit="10" stroke-linecap="round" stroke-linejoin="round"/>
<path d="M258.63 191.619C278.482 204.015 292.135 224.006 296.702 246.654H303.133C299.498 223.54 286.404 202.943 266.878 189.802" fill="#F7E3CB"/>
<path d="M297.355 270.793L302.527 267.438H276.385L281.557 270.793C286.404 273.915 292.555 273.915 297.355 270.793Z" stroke="#4D4D61" stroke-width="3" stroke-miterlimit="10" stroke-linecap="round" stroke-linejoin="round"/>
<path d="M297.355 270.793L302.527 267.438H276.385L281.557 270.793C286.404 273.915 292.555 273.915 297.355 270.793Z" fill="#4D4D61"/>
<path d="M265.387 190.501C270.746 188.264 274.567 182.952 274.567 176.754V171.721H275.592C279.134 171.721 282.023 168.832 282.023 165.29C282.023 161.749 279.553 158.44 275.965 158.44L274.241 158.58L274.521 150.658C274.521 142.41 267.857 135.746 259.609 135.746C251.36 135.746 244.697 142.41 244.697 150.658V158.813H240.27C238.918 158.813 237.8 159.931 237.8 161.283C237.8 164.917 240.736 167.9 244.417 167.9H244.743V176.754C244.743 184.629 250.894 191.107 258.63 191.619" fill="#F7E3CB"/>
<path d="M312.872 258.444H262.591C262.405 258.444 262.265 258.444 262.078 258.49C258.211 258.77 255.182 262.172 255.461 266.179C255.694 269.767 258.677 272.703 262.311 272.89C263.756 272.936 265.107 272.61 266.226 271.958C270.979 269.208 276.291 267.531 281.837 267.531H312.872C315.342 267.531 317.346 265.527 317.346 263.057C317.393 260.494 315.342 258.444 312.872 258.444Z" fill="#CA4361"/>
<path d="M263.197 268.649C262.917 264.641 265.946 261.286 269.814 260.96C269.954 260.96 270.14 260.913 270.327 260.913H316.927C316.181 259.422 314.69 258.444 312.919 258.444H262.591C262.405 258.444 262.265 258.444 262.078 258.49C258.211 258.77 255.182 262.172 255.461 266.179C255.694 269.767 258.677 272.703 262.311 272.89C263.15 272.936 263.942 272.843 264.688 272.61C263.849 271.445 263.29 270.094 263.197 268.649Z" fill="#D35375"/>
<path d="M312.872 258.444H262.591C262.405 258.444 262.265 258.444 262.078 258.49C258.211 258.77 255.182 262.172 255.461 266.179C255.694 269.767 258.677 272.703 262.311 272.89C263.756 272.936 265.107 272.61 266.226 271.958C270.979 269.208 276.291 267.531 281.837 267.531H312.872C315.342 267.531 317.346 265.527 317.346 263.057C317.393 260.494 315.342 258.444 312.872 258.444Z" stroke="#4D4D61" stroke-width="3" stroke-miterlimit="10" stroke-linecap="round" stroke-linejoin="round"/>
<path d="M307.085 318.969L308.354 315.763L294.491 310.273L293.221 313.479L307.085 318.969Z" fill="#4D4D61"/>
<path d="M272.517 318.93L271.259 315.762L283.514 310.915C284.4 310.589 285.378 311.008 285.751 311.894C286.077 312.779 285.658 313.758 284.773 314.131L272.517 318.93Z" fill="#4D4D61"/>
<path d="M281.837 166.595L279.693 178.059C278.808 182.672 274.567 185.841 269.907 185.282H269.861L275.359 162.121L281.837 166.595Z" fill="#A3886C"/>
<path d="M281.837 166.595L279.693 178.059C278.808 182.672 274.567 185.841 269.907 185.282H269.861L275.359 162.121L281.837 166.595Z" stroke="#4D4D61" stroke-width="3" stroke-miterlimit="10" stroke-linecap="round" stroke-linejoin="round"/>
<path d="M244.697 168.692V167.62C244.697 166.129 243.392 165.011 241.947 165.29L240.223 165.896L244.697 168.692Z" fill="#EDD6BC"/>
<path d="M275.36 158.813H274.521V150.844C270.933 156.39 265.341 163.706 265.341 163.706V173.212V173.725C265.341 181.041 259.422 186.959 252.106 186.959H248.704C251.407 189.848 255.275 191.666 259.562 191.666C267.81 191.666 274.474 185.002 274.474 176.754V171.721H275.499C279.181 171.721 282.117 168.645 281.93 164.964C281.837 161.469 278.808 158.813 275.36 158.813Z" fill="#EDD6BC"/>
<path d="M266.878 189.802C271.445 187.239 274.567 182.392 274.567 176.754V171.721H275.592C279.134 171.721 282.023 168.832 282.023 165.29C282.023 161.749 279.553 158.44 275.965 158.44L274.241 158.58L274.521 150.658C274.521 142.41 267.857 135.746 259.609 135.746C251.36 135.746 244.697 142.41 244.697 150.658V158.813H240.27C238.918 158.813 237.8 159.931 237.8 161.283C237.8 164.917 240.736 167.9 244.417 167.9H244.743V176.754C244.743 184.629 250.894 191.107 258.63 191.619" stroke="#4D4D61" stroke-width="3" stroke-miterlimit="10" stroke-linecap="round" stroke-linejoin="round"/>
<path d="M250.522 156.483C251.036 156.483 251.454 156.066 251.454 155.551C251.454 155.036 251.036 154.619 250.522 154.619C250.007 154.619 249.59 155.036 249.59 155.551C249.59 156.066 250.007 156.483 250.522 156.483Z" stroke="#4D4D61" stroke-width="2" stroke-miterlimit="10"/>
<path d="M259.329 165.057V172.606C259.329 177.406 255.415 181.321 250.615 181.321C247.353 181.321 244.743 178.664 244.743 175.449" stroke="#4D4D61" stroke-width="2" stroke-miterlimit="10" stroke-linecap="round" stroke-linejoin="round"/>
<path d="M258.49 164.638L260.168 165.523" stroke="#4D4D61" stroke-width="2" stroke-miterlimit="10" stroke-linecap="round" stroke-linejoin="round"/>
<path d="M252.432 146.79L250.755 150.052L257.325 154.06L257.745 151.264L252.432 146.79Z" fill="#B0977A"/>
<path d="M252.432 146.79L251.919 147.815C253.737 148.328 255.088 149.912 255.088 151.869C255.088 152.149 255.042 152.429 254.995 152.662L257.325 154.106L257.744 151.31L252.432 146.79Z" fill="#A3886C"/>
<path d="M252.432 146.79L250.755 150.052L257.325 154.06L257.745 151.264L252.432 146.79Z" stroke="#4D4D61" stroke-width="2" stroke-miterlimit="10" stroke-linecap="round" stroke-linejoin="round"/>
<path d="M284.446 142.456C286.031 143.435 286.73 143.714 288.268 143.714C285.611 139.986 284.959 132.67 280.998 128.057C279.227 125.96 277.223 123.676 273.402 122.511C266.832 120.554 260.634 122.744 259.842 123.164C255.042 125.727 250.242 131.598 251.64 136.631C251.78 137.19 251.314 137.563 251.64 137.983C256.906 133.975 265.201 135.187 269.115 140.592C272.237 144.879 271.398 151.869 268.369 155.877C267.484 156.762 267.111 159.745 265.806 162.727L269.301 160.584C272.89 158.393 278.295 159.046 281.278 162.028C281.79 162.914 282.116 163.846 282.256 164.778C282.629 164.545 283.095 164.265 283.654 163.799C287.103 160.91 287.708 156.529 287.848 155.411C288.873 148.794 285.192 143.295 284.446 142.456Z" fill="#B0977A"/>
<path d="M288.314 143.761C285.658 140.033 285.006 132.717 281.045 128.103C279.507 126.286 277.783 124.282 274.8 123.071C278.062 126.845 280.066 131.785 280.066 137.19C280.066 145.672 275.173 152.988 268.043 156.529C267.391 157.788 266.971 160.304 265.853 162.82L269.348 160.677C272.936 158.487 278.342 159.139 281.324 162.121C281.837 163.007 282.163 163.939 282.303 164.871C282.676 164.638 283.142 164.358 283.701 163.892C287.149 161.003 287.755 156.623 287.895 155.504C288.827 148.84 285.099 143.295 284.4 142.503C286.077 143.481 286.776 143.761 288.314 143.761Z" fill="#A3886C"/>
<path d="M284.446 142.456C286.031 143.435 286.73 143.714 288.268 143.714C285.611 139.986 284.959 132.67 280.998 128.057C279.227 125.96 277.223 123.676 273.402 122.511C266.832 120.554 260.634 122.744 259.842 123.164C255.042 125.727 250.242 131.598 251.64 136.631C251.78 137.19 251.314 137.563 251.64 137.983C256.906 133.975 265.201 135.187 269.115 140.592C272.237 144.879 271.398 151.869 268.369 155.877C267.484 156.762 267.111 159.745 265.806 162.727L271.072 159.558C274.567 157.415 279.181 158.533 281.278 162.075C281.79 162.96 282.116 163.892 282.256 164.824C282.629 164.591 283.095 164.312 283.654 163.846C287.103 160.956 287.708 156.576 287.848 155.458C288.873 148.794 285.192 143.295 284.446 142.456Z" stroke="#4D4D61" stroke-width="3" stroke-miterlimit="10" stroke-linecap="round" stroke-linejoin="round"/>
<path d="M272.61 163.053L278.155 167.014" stroke="#4D4D61" stroke-width="2" stroke-miterlimit="10" stroke-linecap="round" stroke-linejoin="round"/>
<path d="M277.456 162.121L273.495 167.667" stroke="#4D4D61" stroke-width="2" stroke-miterlimit="10" stroke-linecap="round" stroke-linejoin="round"/>
<path d="M245.768 166.129L246.281 166.595C246.281 166.595 247.213 165.616 248.424 166.129C248.098 165.477 245.396 165.15 245.768 166.129Z" stroke="#4D4D61" stroke-width="2" stroke-miterlimit="10" stroke-linecap="round" stroke-linejoin="round"/>
<path d="M258.63 191.619C278.482 204.015 292.135 224.006 296.702 246.654H303.133C299.498 223.54 286.404 202.943 266.878 189.802" stroke="#4D4D61" stroke-width="3" stroke-miterlimit="10" stroke-linecap="round" stroke-linejoin="round"/>
<path d="M235.172 256.926L263.722 302.886L273.263 296.96L244.713 251L235.172 256.926Z" fill="#475C80"/>
<path opacity="0.57" d="M240.829 266.365L261.379 299.125C262.684 298.287 266.645 300.104 265.806 298.799L247.027 270.699C246.188 269.395 242.6 265.993 241.248 266.831L240.829 266.365Z" fill="#6987AF"/>
<path d="M239.944 264.595C239.944 264.595 248.751 261.845 251.78 262.405C248.704 256.486 247.586 255.321 247.586 255.321L235.796 259.143L239.944 264.595Z" fill="#4D4D61"/>
<path d="M235.172 256.926L263.722 302.886L273.263 296.96L244.713 251L235.172 256.926Z" stroke="#4D4D61" stroke-width="3" stroke-miterlimit="10" stroke-linecap="round" stroke-linejoin="round"/>
<path d="M218.135 260.587L182.206 290.225L189.336 298.892L222.142 271.818C232.674 263.104 245.955 258.35 259.609 258.35H300.29C303.366 258.35 305.882 255.834 305.882 252.758V247.166H255.554C241.901 247.12 228.666 251.873 218.135 260.587Z" fill="#475C80"/>
<path opacity="0.57" d="M184.443 288.361L187.612 292.788L225.125 259.189L223.214 256.812C221.443 257.978 219.766 259.236 218.135 260.587L184.443 288.361Z" fill="#6987AF"/>
<path opacity="0.57" d="M247.446 250.009L289.433 250.568C291.623 250.568 298.986 249.263 298.986 247.073H255.648C251.174 247.073 237.101 249.263 231.928 252.059C230.577 252.805 241.155 250.009 247.446 250.009Z" fill="#6987AF"/>
<path d="M218.135 260.587L182.206 290.225L189.336 298.892L222.142 271.818C232.674 263.104 245.955 258.35 259.609 258.35H300.29C303.366 258.35 305.882 255.834 305.882 252.758V247.166H255.554C241.901 247.12 228.666 251.873 218.135 260.587Z" stroke="#4D4D61" stroke-width="3" stroke-miterlimit="10" stroke-linecap="round" stroke-linejoin="round"/>
<path d="M305.929 246.654C302.714 225.684 291.856 206.531 275.686 192.971L265.48 200.054C279.973 211.89 289.992 228.387 293.813 246.654H305.929Z" fill="#E5E5E5"/>
<path d="M293.813 246.654H298.939C294.978 227.361 284.54 209.886 269.488 197.258L265.48 200.054C279.973 211.844 289.992 228.387 293.813 246.654Z" fill="white"/>
<path d="M305.929 246.654C302.714 225.684 291.856 206.531 275.686 192.971L265.48 200.054C279.973 211.89 289.992 228.387 293.813 246.654H305.929Z" stroke="#4D4D61" stroke-width="3" stroke-miterlimit="10" stroke-linecap="round" stroke-linejoin="round"/>
<path d="M231.462 214.313C231.462 214.313 227.594 217.529 227.921 210.912C228.06 207.883 232.021 207.976 232.021 207.976L232.441 210.818L231.462 214.313Z" fill="#B0977A"/>
<path d="M231.462 214.313C231.462 214.313 227.594 217.529 227.921 210.912C228.06 207.883 232.021 207.976 232.021 207.976L232.441 210.818L231.462 214.313Z" stroke="#4D4D61" stroke-width="3" stroke-miterlimit="10" stroke-linecap="round" stroke-linejoin="round"/>
<path d="M242.879 207.137C241.015 209.747 238.126 211.424 234.911 211.75C232.487 211.983 232.534 206.391 228.759 213.009C227.268 213.801 225.497 212.216 224.705 211.284C224.472 211.005 224.472 210.585 224.752 210.352C225.451 209.747 226.756 208.302 227.361 205.786C227.781 203.362 228.573 201.592 230.484 202.617C232.161 203.502 242.6 202.244 242.879 207.137Z" fill="#EDD6BC"/>
<path d="M242.879 207.137C241.015 209.747 238.126 211.424 234.911 211.75C232.487 211.983 232.534 206.391 228.759 213.009C227.268 213.801 225.544 212.216 224.705 211.331C224.426 211.051 224.472 210.585 224.752 210.352C225.497 209.7 226.756 208.302 227.315 205.786C227.734 203.362 228.526 201.592 230.437 202.617C232.161 203.502 242.6 202.244 242.879 207.137Z" stroke="#4D4D61" stroke-width="3" stroke-miterlimit="10" stroke-linecap="round" stroke-linejoin="round"/>
<path d="M244.231 212.636C244.231 212.636 242.879 208.721 239.244 206.857C238.872 208.302 237.008 209.747 235.19 210.259L236.215 212.03C237.008 213.475 236.355 215.292 234.817 215.805C233.466 216.271 232.021 215.618 231.462 214.313L229.179 207.37C229.179 207.37 233.652 205.739 235.004 204.341C235.936 203.409 238.126 199.914 238.126 199.914C238.126 199.914 242.18 200.893 244.93 203.642C247.213 205.925 249.263 209.793 249.263 209.793L244.231 212.636Z" fill="#EDD6BC"/>
<path d="M234.165 215.618L231.882 208.675C231.882 208.675 236.355 207.044 237.707 205.646C238.639 204.714 240.829 201.219 240.829 201.219C240.829 201.219 241.435 201.359 242.367 201.731C240.177 200.427 238.08 199.914 238.08 199.914C238.08 199.914 235.889 203.409 234.957 204.341C233.559 205.692 229.132 207.37 229.132 207.37L231.416 214.313C231.882 215.478 233.093 216.131 234.305 215.898C234.258 215.805 234.212 215.711 234.165 215.618Z" fill="#F7E3CB"/>
<path d="M241.947 208.162C241.901 208.349 241.808 208.535 241.714 208.722C243.485 210.586 244.231 212.636 244.231 212.636L245.815 211.751C245.023 210.539 243.765 209.094 241.947 208.162Z" fill="#F7E3CB"/>
<path d="M244.231 212.636C244.231 212.636 242.879 208.721 239.244 206.857C238.872 208.302 237.008 209.747 235.19 210.259L236.215 212.03C237.008 213.475 236.355 215.292 234.817 215.805C233.466 216.271 232.021 215.618 231.462 214.313L229.179 207.37C229.179 207.37 233.652 205.739 235.004 204.341C235.936 203.409 238.126 199.914 238.126 199.914C238.126 199.914 242.18 200.893 244.93 203.642C247.213 205.925 249.263 209.793 249.263 209.793L244.231 212.636Z" stroke="#4D4D61" stroke-width="3" stroke-miterlimit="10" stroke-linecap="round" stroke-linejoin="round"/>
<path d="M231.462 213.009L232.86 212.589C232.86 212.589 233.559 213.288 233.559 213.941C233.559 214.593 231.928 215.106 231.928 215.106C231.928 215.106 230.856 213.568 231.462 213.009Z" stroke="#4D4D61" stroke-width="2" stroke-miterlimit="10" stroke-linecap="round" stroke-linejoin="round"/>
<path d="M226.01 209.141L227.128 210.073C227.128 210.073 226.942 211.051 226.383 211.378C225.87 211.704 224.519 210.679 224.519 210.679C224.519 210.679 225.218 208.954 226.01 209.141Z" stroke="#4D4D61" stroke-width="2" stroke-miterlimit="10" stroke-linecap="round" stroke-linejoin="round"/>
<path d="M250.056 208.768L261.939 231.555C263.663 234.864 266.505 237.427 270 238.825C277.969 241.994 287.009 238.079 290.178 230.111C293.347 222.142 289.433 213.102 281.464 209.933L276.431 207.929C274.288 207.09 273.262 204.621 274.101 202.524C274.94 200.427 277.363 199.401 279.507 200.24L284.54 202.244C296.795 207.09 302.76 220.977 297.914 233.186C293.067 245.442 279.181 251.407 266.971 246.561C261.659 244.464 257.279 240.503 254.622 235.423L242.926 213.009L250.056 208.768Z" fill="#E5E5E5"/>
<path d="M253.271 214.919L250.056 208.768L242.879 213.009L246.048 219.067L253.271 214.919Z" fill="#E5E5E5"/>
<path d="M242.879 213.009L254.576 235.423C254.995 236.215 255.461 237.008 255.974 237.753C255.694 236.122 257.372 239.617 257.372 239.617L245.442 211.424L242.879 213.009Z" fill="white"/>
<path d="M253.271 214.919L250.056 208.768L242.879 213.009L246.048 219.067L253.271 214.919Z" stroke="#4D4D61" stroke-width="3" stroke-miterlimit="10" stroke-linecap="round" stroke-linejoin="round"/>
<path d="M274.707 205.18C275.546 203.083 277.969 202.058 280.113 202.896L285.145 204.9C292.322 207.743 297.355 213.708 299.312 220.651C298.007 212.636 292.648 205.459 284.586 202.244L279.553 200.24C277.41 199.401 275.033 200.427 274.148 202.524C273.635 203.782 273.775 205.18 274.474 206.252C274.474 205.879 274.567 205.553 274.707 205.18Z" fill="white"/>
<path d="M250.661 209.933L260.401 232.161C262.871 236.635 265.9 240.13 269.348 241.481C277.317 244.65 287.522 240.736 290.691 232.767C292.042 229.319 292.089 225.684 291.064 222.422C291.39 224.938 291.11 227.594 290.085 230.111C286.916 238.079 277.876 241.994 269.907 238.825C266.459 237.427 263.57 234.864 261.845 231.555L250.056 208.768" fill="white"/>
<path d="M250.056 208.768L261.939 231.555C263.663 234.864 266.505 237.427 270 238.825C277.969 241.994 287.009 238.079 290.178 230.111C293.347 222.142 289.433 213.102 281.464 209.933L276.431 207.929C274.288 207.09 273.262 204.621 274.101 202.524C274.94 200.427 277.363 199.401 279.507 200.24L284.54 202.244C296.795 207.09 302.76 220.977 297.914 233.186C293.067 245.442 279.181 251.407 266.971 246.561C261.659 244.464 257.279 240.503 254.622 235.423L242.926 213.009L250.056 208.768Z" stroke="#4D4D61" stroke-width="3" stroke-miterlimit="10" stroke-linecap="round" stroke-linejoin="round"/>
<path d="M275.872 191.666L268.369 204.667L259.888 199.075L272.424 190.268L275.872 191.666Z" fill="#E5E5E5"/>
<path d="M269.581 192.272L259.888 199.075L263.709 201.592C263.756 201.545 263.803 201.545 263.849 201.498C268.09 199.168 270.513 195.207 269.581 192.272Z" fill="white"/>
<path d="M275.872 191.666L268.369 204.667L259.888 199.075L272.424 190.268L275.872 191.666Z" stroke="#4D4D61" stroke-width="3" stroke-miterlimit="10" stroke-linecap="round" stroke-linejoin="round"/>
<path d="M265.527 328.25C270.571 328.25 274.66 324.161 274.66 319.117C274.66 314.072 270.571 309.983 265.527 309.983C260.483 309.983 256.393 314.072 256.393 319.117C256.393 324.161 260.483 328.25 265.527 328.25Z" fill="#56566D"/>
<path opacity="0.44" d="M260.261 323.684C260.261 318.651 264.362 314.55 269.395 314.55C271.072 314.55 272.657 315.016 274.008 315.808C272.657 312.406 269.348 309.983 265.48 309.983C260.448 309.983 256.347 314.084 256.347 319.117C256.347 322.472 258.164 325.408 260.867 326.992C260.494 325.967 260.261 324.849 260.261 323.684Z" fill="#66667C"/>
<path d="M265.527 328.25C270.571 328.25 274.66 324.161 274.66 319.117C274.66 314.072 270.571 309.983 265.527 309.983C260.483 309.983 256.393 314.072 256.393 319.117C256.393 324.161 260.483 328.25 265.527 328.25Z" stroke="#4D4D61" stroke-width="3" stroke-miterlimit="10" stroke-linecap="round" stroke-linejoin="round"/>
<path d="M265.527 323.637C268.023 323.637 270.047 321.613 270.047 319.117C270.047 316.62 268.023 314.597 265.527 314.597C263.03 314.597 261.007 316.62 261.007 319.117C261.007 321.613 263.03 323.637 265.527 323.637Z" stroke="#4D4D61" stroke-width="3" stroke-miterlimit="10" stroke-linecap="round" stroke-linejoin="round"/>
<path d="M265.527 323.637C268.023 323.637 270.047 321.613 270.047 319.117C270.047 316.62 268.023 314.597 265.527 314.597C263.03 314.597 261.007 316.62 261.007 319.117C261.007 321.613 263.03 323.637 265.527 323.637Z" fill="#4D4D61"/>
<path d="M276.152 314.597C274.614 314.597 273.216 313.944 272.144 312.826C270.466 311.055 268.136 309.983 265.527 309.983C262.964 309.983 260.68 311.008 259.003 312.733C257.838 313.898 256.347 314.597 254.716 314.597H254.669C256.44 310.356 260.634 307.374 265.527 307.374C270.42 307.374 274.614 310.356 276.385 314.597H276.152Z" fill="#CA4361"/>
<path d="M262.684 307.7C259.049 308.585 256.114 311.195 254.669 314.597H254.716C256.3 314.597 257.791 313.991 258.863 312.872C259.795 311.894 261.706 311.102 263.243 310.636C264.595 310.216 264.688 308.259 263.337 307.793C263.197 307.7 262.917 307.653 262.684 307.7Z" fill="#D35375"/>
<path d="M276.152 314.597C274.614 314.597 273.216 313.944 272.144 312.826C270.466 311.055 268.136 309.983 265.527 309.983C262.964 309.983 260.68 311.008 259.003 312.733C257.838 313.898 256.347 314.597 254.716 314.597H254.669C256.44 310.356 260.634 307.374 265.527 307.374C270.42 307.374 274.614 310.356 276.385 314.597H276.152Z" stroke="#4D4D61" stroke-width="3" stroke-miterlimit="10" stroke-linecap="round" stroke-linejoin="round"/>
<path d="M314.503 328.25C319.548 328.25 323.637 324.161 323.637 319.117C323.637 314.072 319.548 309.983 314.503 309.983C309.459 309.983 305.37 314.072 305.37 319.117C305.37 324.161 309.459 328.25 314.503 328.25Z" fill="#56566D"/>
<path opacity="0.44" d="M309.564 323.684C309.564 318.651 313.665 314.55 318.697 314.55C320.375 314.55 321.959 315.016 323.311 315.808C321.959 312.406 318.651 309.983 314.783 309.983C309.75 309.983 305.649 314.084 305.649 319.117C305.649 322.472 307.467 325.408 310.17 326.992C309.797 325.967 309.564 324.849 309.564 323.684Z" fill="#66667C"/>
<path d="M314.503 328.25C319.548 328.25 323.637 324.161 323.637 319.117C323.637 314.072 319.548 309.983 314.503 309.983C309.459 309.983 305.37 314.072 305.37 319.117C305.37 324.161 309.459 328.25 314.503 328.25Z" stroke="#4D4D61" stroke-width="3" stroke-miterlimit="10" stroke-linecap="round" stroke-linejoin="round"/>
<path d="M149.772 243.811H143.435V330.813H149.772V243.811Z" stroke="#4D4D61" stroke-width="3" stroke-miterlimit="10" stroke-linecap="round" stroke-linejoin="round"/>
<path d="M149.772 243.811H143.435V330.813H149.772V243.811Z" fill="#4D4D61"/>
<path d="M314.503 323.637C317 323.637 319.024 321.613 319.024 319.117C319.024 316.62 317 314.597 314.503 314.597C312.007 314.597 309.983 316.62 309.983 319.117C309.983 321.613 312.007 323.637 314.503 323.637Z" stroke="#4D4D61" stroke-width="3" stroke-miterlimit="10" stroke-linecap="round" stroke-linejoin="round"/>
<path d="M325.128 314.597C323.59 314.597 322.192 313.944 321.12 312.826C319.443 311.055 317.113 309.983 314.503 309.983C311.94 309.983 309.657 311.008 307.979 312.733C306.814 313.898 305.323 314.597 303.692 314.597H303.646C305.416 310.356 309.61 307.374 314.503 307.374C319.396 307.374 323.59 310.356 325.361 314.597H325.128Z" fill="#CA4361"/>
<path d="M314.503 323.637C317 323.637 319.024 321.613 319.024 319.117C319.024 316.62 317 314.597 314.503 314.597C312.007 314.597 309.983 316.62 309.983 319.117C309.983 321.613 312.007 323.637 314.503 323.637Z" fill="#4D4D61"/>
<path d="M325.128 314.597C323.59 314.597 322.192 313.944 321.12 312.826C319.443 311.055 317.113 309.983 314.503 309.983C311.94 309.983 309.657 311.008 307.979 312.733C306.814 313.898 305.323 314.597 303.692 314.597H303.646C305.416 310.356 309.61 307.374 314.503 307.374C319.396 307.374 323.59 310.356 325.361 314.597H325.128Z" stroke="#4D4D61" stroke-width="3" stroke-miterlimit="10" stroke-linecap="round" stroke-linejoin="round"/>
<path d="M250.615 235.144H113.797C112.679 235.144 111.793 234.258 111.793 233.14V229.365C111.793 228.247 112.679 227.361 113.797 227.361H250.615C251.733 227.361 252.619 228.247 252.619 229.365V233.14C252.619 234.258 251.733 235.144 250.615 235.144Z" fill="#B98C78"/>
<path d="M163.985 231.649C144.087 231.649 126.193 233 113.937 235.144H214.08C201.778 233 183.884 231.649 163.985 231.649Z" fill="#C9A08F"/>
<path d="M250.615 235.144H113.797C112.679 235.144 111.793 234.258 111.793 233.14V229.365C111.793 228.247 112.679 227.361 113.797 227.361H250.615C251.733 227.361 252.619 228.247 252.619 229.365V233.14C252.619 234.258 251.733 235.144 250.615 235.144Z" stroke="#4D4D61" stroke-width="3" stroke-miterlimit="10" stroke-linecap="round" stroke-linejoin="round"/>
<path d="M235.843 245.116H128.523C125.773 245.116 123.537 242.879 123.537 240.13C123.537 237.38 125.773 235.144 128.523 235.144H235.843C238.592 235.144 240.829 237.38 240.829 240.13C240.829 242.879 238.592 245.116 235.843 245.116Z" stroke="#4D4D61" stroke-width="3" stroke-miterlimit="10" stroke-linecap="round" stroke-linejoin="round"/>
<path d="M235.843 245.116H128.523C125.773 245.116 123.537 242.879 123.537 240.13C123.537 237.38 125.773 235.144 128.523 235.144H235.843C238.592 235.144 240.829 237.38 240.829 240.13C240.829 242.879 238.592 245.116 235.843 245.116Z" fill="#4D4D61"/>
<path d="M168.226 242.786C152.895 242.786 139.753 243.765 133.975 245.116H202.477C196.699 243.718 183.557 242.786 168.226 242.786Z" fill="#575770"/>
<path d="M170.137 219.766C171.81 219.766 173.166 218.409 173.166 216.737C173.166 215.064 171.81 213.708 170.137 213.708C168.464 213.708 167.108 215.064 167.108 216.737C167.108 218.409 168.464 219.766 170.137 219.766Z" fill="#83ABBA"/>
<path d="M170.137 219.766C171.81 219.766 173.166 218.409 173.166 216.737C173.166 215.064 171.81 213.708 170.137 213.708C168.464 213.708 167.108 215.064 167.108 216.737C167.108 218.409 168.464 219.766 170.137 219.766Z" stroke="#4D4D61" stroke-width="3" stroke-miterlimit="10" stroke-linecap="round" stroke-linejoin="round"/>
<path d="M169.251 215.525L169.484 215.478L158.067 152.056L157.834 152.102C155.644 152.522 154.153 154.619 154.572 156.809L164.545 212.263C164.917 214.453 167.014 215.898 169.251 215.525Z" fill="#92B4C3"/>
<path d="M164.358 211.284C164.358 204.061 163.706 196.233 162.261 188.171C160.77 179.736 158.58 171.814 155.97 164.824L164.358 211.284Z" fill="#ACD3E5"/>
<path d="M169.251 215.525L169.484 215.478L158.067 152.056L157.834 152.102C155.644 152.522 154.153 154.619 154.572 156.809L164.545 212.263C164.917 214.453 167.014 215.898 169.251 215.525Z" stroke="#4D4D61" stroke-width="3" stroke-miterlimit="10" stroke-linecap="round" stroke-linejoin="round"/>
<path d="M224.239 244.184H217.902V331.186H224.239V244.184Z" stroke="#4D4D61" stroke-width="3" stroke-miterlimit="10" stroke-linecap="round" stroke-linejoin="round"/>
<path d="M224.239 244.184H217.902V331.186H224.239V244.184Z" fill="#4D4D61"/>
<path d="M176.008 224.099H234.258C237.101 224.099 239.431 221.769 239.431 218.927V216.737H170.836V218.927C170.836 221.769 173.166 224.099 176.008 224.099Z" fill="#92B4C3"/>
<path d="M234.258 222.468H176.008C173.166 222.468 170.836 220.138 170.836 217.296V218.927C170.836 221.769 173.166 224.099 176.008 224.099H234.258C237.101 224.099 239.431 221.769 239.431 218.927V217.296C239.431 220.138 237.101 222.468 234.258 222.468Z" fill="#83ABBA"/>
<path d="M176.008 224.099H234.258C237.101 224.099 239.431 221.769 239.431 218.927V216.737H170.836V218.927C170.836 221.769 173.166 224.099 176.008 224.099Z" stroke="#4D4D61" stroke-width="3" stroke-miterlimit="10" stroke-linecap="round" stroke-linejoin="round"/>
<path d="M179.455 227.324L230.808 227.324L230.808 224.062L179.455 224.062L179.455 227.324Z" stroke="#4D4D61" stroke-width="3" stroke-miterlimit="10" stroke-linecap="round" stroke-linejoin="round"/>
<path d="M179.455 227.324L230.808 227.324L230.808 224.062L179.455 224.062L179.455 227.324Z" fill="#4D4D61"/>
<path d="M205.226 220.353L209.839 220.353L209.839 218.816L205.226 218.816L205.226 220.353Z" stroke="#4D4D61" stroke-width="2" stroke-miterlimit="10" stroke-linecap="round" stroke-linejoin="round"/>
<path d="M198.651 220.353L203.264 220.353L203.264 218.816L198.651 218.816L198.651 220.353Z" stroke="#4D4D61" stroke-width="2" stroke-miterlimit="10" stroke-linecap="round" stroke-linejoin="round"/>
<path d="M176.847 220.418C177.31 220.418 177.686 220.042 177.686 219.579C177.686 219.116 177.31 218.74 176.847 218.74C176.384 218.74 176.008 219.116 176.008 219.579C176.008 220.042 176.384 220.418 176.847 220.418Z" stroke="#4D4D61" stroke-width="2" stroke-miterlimit="10" stroke-linecap="round" stroke-linejoin="round"/>
<path d="M341.112 192.831C341.811 187.472 337.99 182.579 332.584 182.066C327.411 181.554 322.845 185.375 322.146 190.547L315.761 238.033C315.482 240.176 316.973 242.134 319.117 242.413L324.755 243.159C326.899 243.438 328.856 241.947 329.136 239.804L330.068 232.814C331.792 219.999 334.961 207.323 340.366 195.58C340.692 194.741 340.972 193.809 341.112 192.831Z" fill="#CA4361"/>
<path d="M328.157 232.814L327.225 239.804C326.992 241.435 325.78 242.739 324.243 243.066L324.755 243.112C326.899 243.392 328.856 241.901 329.136 239.757L330.068 232.767C331.792 219.952 334.961 207.277 340.366 195.534C340.739 194.695 341.019 193.763 341.158 192.831C341.857 187.472 338.036 182.579 332.631 182.066C332.025 182.02 331.372 182.02 330.813 182.066C336.219 182.625 340.04 187.518 339.341 192.831C339.201 193.809 338.922 194.695 338.549 195.534" fill="#D35375"/>
<path d="M322.146 190.547L317.206 227.361C321.493 215.106 325.641 201.918 325.641 191.666C325.641 184.722 334.075 182.392 336.405 184.722C334.867 181.88 329.974 181.6 327.318 183.138C324.429 184.769 322.425 188.264 322.146 190.547Z" fill="#D35375"/>
<path d="M341.112 192.831C341.811 187.472 337.99 182.579 332.584 182.066C327.411 181.554 322.845 185.375 322.146 190.547L315.761 238.033C315.482 240.176 316.973 242.134 319.117 242.413L324.755 243.159C326.899 243.438 328.856 241.947 329.136 239.804L330.068 232.814C331.792 219.999 334.961 207.323 340.366 195.58C340.692 194.741 340.972 193.809 341.112 192.831Z" stroke="#4D4D61" stroke-width="3" stroke-miterlimit="10" stroke-linecap="round" stroke-linejoin="round"/>
<path d="M181.274 313.385L149.306 292.788C148.701 292.415 148.561 291.623 148.934 291.064L148.98 290.97C149.353 290.365 150.145 290.225 150.704 290.598L182.672 311.195C183.278 311.568 183.418 312.36 183.045 312.919L182.998 313.012C182.672 313.571 181.88 313.758 181.274 313.385Z" fill="#595D5C"/>
<path d="M181.274 313.385L149.306 292.788C148.701 292.415 148.561 291.623 148.934 291.064L148.98 290.97C149.353 290.365 150.145 290.225 150.704 290.598L182.672 311.195C183.278 311.568 183.418 312.36 183.045 312.919L182.998 313.012C182.672 313.571 181.88 313.758 181.274 313.385Z" stroke="#4D4D61" stroke-width="3" stroke-miterlimit="10" stroke-linecap="round" stroke-linejoin="round"/>
<path d="M184.676 302.9L184.536 302.807C182.952 303.086 180.901 302.62 179.037 301.409C177.639 300.523 176.567 299.312 175.962 298.147C175.402 297.075 174.657 296.096 173.678 295.444L161.329 287.103C159.885 286.124 157.974 285.938 156.157 286.543L152.149 287.941C150.798 288.407 150.378 290.318 151.45 291.017L182.392 310.962L185.142 306.675C185.981 305.323 185.794 303.646 184.676 302.9Z" fill="#9B8462"/>
<path opacity="0.74" d="M156.157 286.543L155.504 286.776C155.551 288.314 156.343 289.805 157.741 290.737L177.08 303.18C178.897 304.345 181.227 304.158 182.812 302.853C181.6 302.714 180.295 302.248 179.037 301.455C177.639 300.57 176.567 299.358 175.962 298.193C175.402 297.122 174.657 296.143 173.678 295.491L161.329 287.149C159.885 286.077 157.974 285.891 156.157 286.543Z" fill="#E1C885"/>
<path d="M184.676 302.9L184.536 302.807C182.952 303.086 180.901 302.62 179.037 301.409C177.639 300.523 176.567 299.312 175.962 298.147C175.402 297.075 174.657 296.096 173.678 295.444L161.329 287.103C159.885 286.124 157.974 285.938 156.157 286.543L152.149 287.941C150.798 288.407 150.378 290.318 151.45 291.017L182.392 310.962L185.142 306.675C185.981 305.323 185.794 303.646 184.676 302.9Z" stroke="#4D4D61" stroke-width="3" stroke-miterlimit="10" stroke-linecap="round" stroke-linejoin="round"/>
<path d="M170.509 298.147L175.402 297.215L174.144 295.817L170.509 298.147Z" stroke="#4D4D61" stroke-width="3" stroke-miterlimit="10" stroke-linecap="round" stroke-linejoin="round"/>
<path d="M183.93 285.145L180.062 288.967L189.522 300.85L194.182 296.982L183.93 285.145Z" fill="#92B4C3"/>
<path d="M183.651 285.425L180.062 288.967L185.188 295.397C186.027 294.186 186.54 292.741 186.54 291.203C186.54 288.873 185.421 286.776 183.651 285.425Z" fill="#9EC0CC"/>
<path d="M183.93 285.145L180.062 288.967L189.522 300.85L194.182 296.982L183.93 285.145Z" stroke="#4D4D61" stroke-width="3" stroke-miterlimit="10" stroke-linecap="round" stroke-linejoin="round"/>
<path d="M260.261 300.337L263.197 304.95L276.804 298.147L274.008 292.788L260.261 300.337Z" fill="#92B4C3"/>
<path d="M260.261 300.337L263.197 304.95L276.804 298.147L274.008 292.788L260.261 300.337Z" fill="#92B4C3"/>
<path d="M265.527 300.896C265.527 299.871 264.968 298.986 264.036 298.24L260.261 300.337L262.824 304.345C264.455 303.552 265.527 302.294 265.527 300.896Z" fill="#9EC0CC"/>
<path d="M260.261 300.337L263.197 304.95L276.804 298.147L274.008 292.788L260.261 300.337Z" stroke="#4D4D61" stroke-width="3" stroke-miterlimit="10" stroke-linecap="round" stroke-linejoin="round"/>
<path d="M222.282 189.289C222.488 189.289 222.655 189.018 222.655 188.683C222.655 188.349 222.488 188.078 222.282 188.078C222.076 188.078 221.909 188.349 221.909 188.683C221.909 189.018 222.076 189.289 222.282 189.289Z" stroke="#4D4D61" stroke-width="2" stroke-miterlimit="10" stroke-linecap="round" stroke-linejoin="round"/>
<path d="M183.93 221.863H181.6C180.994 221.863 180.482 221.35 180.482 220.744V219.346C180.482 218.74 180.994 218.228 181.6 218.228H183.93C184.536 218.228 185.049 218.74 185.049 219.346V220.744C185.049 221.35 184.536 221.863 183.93 221.863Z" fill="#4D4D61"/>
</svg>
